<?xml version="1.0" encoding="UTF-8" standalone="no"?>
<!-- Created with Inkscape (http://www.inkscape.org/) -->

<svg
   xmlns:dc="http://purl.org/dc/elements/1.1/"
   xmlns:cc="http://creativecommons.org/ns#"
   xmlns:rdf="http://www.w3.org/1999/02/22-rdf-syntax-ns#"
   xmlns:svg="http://www.w3.org/2000/svg"
   xmlns="http://www.w3.org/2000/svg"
   xmlns:sodipodi="http://sodipodi.sourceforge.net/DTD/sodipodi-0.dtd"
   xmlns:inkscape="http://www.inkscape.org/namespaces/inkscape"
   width="1650"
   height="200"
   viewBox="0 0 436.56251 52.916666"
   version="1.1"
   id="svg3800"
   inkscape:version="0.92.5 (2060ec1f9f, 2020-04-08)"
   sodipodi:docname="logo.svg">
  <defs
     id="defs3794" />
  <sodipodi:namedview
     id="base"
     pagecolor="#ffffff"
     bordercolor="#666666"
     borderopacity="1.0"
     inkscape:pageopacity="0.0"
     inkscape:pageshadow="2"
     inkscape:zoom="0.35"
     inkscape:cx="400"
     inkscape:cy="102.85714"
     inkscape:document-units="mm"
     inkscape:current-layer="layer1"
     showgrid="false"
     units="px"
     inkscape:window-width="1427"
     inkscape:window-height="829"
     inkscape:window-x="313"
     inkscape:window-y="130"
     inkscape:window-maximized="0" />
  <metadata
     id="metadata3797">
    <rdf:RDF>
      <cc:Work
         rdf:about="">
        <dc:format>image/svg+xml</dc:format>
        <dc:type
           rdf:resource="http://purl.org/dc/dcmitype/StillImage" />
        <dc:title></dc:title>
      </cc:Work>
    </rdf:RDF>
  </metadata>
  <g
     inkscape:label="Layer 1"
     inkscape:groupmode="layer"
     id="layer1"
     transform="translate(0,-244.08334)">
    <g
       id="g20"
       transform="matrix(0.18788518,0,0,-0.17227941,53.749315,258.56778)">
      <path
         d="m 0,0 c 0,0 7.42,0.665 14.071,7.316 6.651,6.65 7.902,5.711 11.084,2.882 3.991,-3.548 5.987,-13.08 15.297,9.532 9.312,22.613 10.863,27.269 22.835,-15.296 11.972,-42.565 27.49,-56.31 36.801,-36.358 9.311,19.952 20.063,-9.09 46.112,-17.292 0,0 -15.297,7.537 -27.932,24.164 -12.637,16.627 -18.402,13.08 -23.057,4.213 C 90.556,-29.707 83.904,-31.481 74.815,-1.552 65.726,28.376 52.867,72.272 42.892,46.334 32.915,20.396 32.028,12.858 27.816,17.957 23.604,23.056 18.948,25.495 12.519,14.188 6.09,2.882 0,0 0,0"
         style="fill:#231f20;fill-opacity:1;fill-rule:nonzero;stroke:none"
         id="path22"
         inkscape:connector-curvature="0" />
    </g>
    <g
       id="g24"
       transform="matrix(0.18788518,0,0,-0.17227941,14.031873,266.85577)">
      <path
         d="m 0,0 c 0,0 37.023,8.868 55.978,34.474 15.987,21.596 23.278,27.601 28.599,18.954 9.367,-15.222 10.308,-7.759 15.629,-3.325 5.32,4.434 8.424,5.653 14.631,2.993 6.208,-2.66 14.854,-8.535 21.949,17.625 7.093,26.159 9.153,20.87 18.622,-3.326 5.986,-15.297 16.434,-26.991 20.783,-32.09 4.822,-5.653 -1.321,-7.38 -42.288,-17.569 C 90.229,6.873 -1.97,-18.558 2.771,-72.605 c 4.988,-56.864 96.77,-82.138 328.219,-64.513 0,0 -203.738,-6.096 -265.368,24.054 -61.631,30.15 -51.877,75.376 21.282,103.31 73.159,27.933 113.951,25.273 109.517,40.791 -4.434,15.519 -20.617,17.736 -39.351,60.301 -18.733,42.565 -27.601,-5.764 -29.374,-14.189 -1.774,-8.424 -4.877,-17.735 -11.528,-13.744 -6.651,3.99 -9.755,4.877 -13.967,-0.665 C 97.989,57.197 94.885,52.098 89.564,66.397 84.244,80.697 77.15,85.574 54.98,48.773 32.811,11.972 0,0 0,0"
         style="fill:#000000;fill-opacity:1;fill-rule:nonzero;stroke:none"
         id="path26"
         inkscape:connector-curvature="0" />
    </g>
    <g
       id="g28"
       transform="matrix(0.18788518,0,0,-0.17227941,50.520039,258.98797)">
      <path
         d="m 0,0 c 0,0 18.732,-0.554 39.351,-5.542 20.617,-4.988 34.053,-9.351 6.65,-34.917 -19.842,-18.512 -74.822,-46.445 103.863,-44.228 0,0 -81.139,-10.198 -124.592,-2.217 -54.061,9.93 7.539,45.226 18.179,57.64 C 54.093,-16.849 48.994,-11.084 0,0"
         style="fill:#231f20;fill-opacity:1;fill-rule:nonzero;stroke:none"
         id="path30"
         inkscape:connector-curvature="0" />
    </g>
    <g
       id="g32"
       transform="matrix(0.18788518,0,0,-0.17227941,51.915425,260.45839)">
      <path
         d="m 0,0 c 0,0 8.594,-1.055 19.065,-4.766 8.757,-3.104 4.545,-11.196 -20.134,-32.265 -28.006,-23.91 -36.893,-34.05 -27.372,-47.81 13.833,-19.992 80.618,-22.902 114.56,-22.902 0,0 -45.818,-6.546 -84.268,-3.011 -45.179,4.153 -52.555,28.467 -46.351,41.241 6.205,12.774 29.263,30.83 39.512,38.088 C 24.829,-10.309 17.07,-7.538 12.857,-5.764 9.315,-4.272 0,0 0,0"
         style="fill:#231f20;fill-opacity:1;fill-rule:nonzero;stroke:none"
         id="path34"
         inkscape:connector-curvature="0" />
    </g>
    <g
       id="g36"
       transform="matrix(0.18788518,0,0,-0.17227941,46.001062,266.33979)">
      <path
         d="m 0,0 c 0,0 -22.613,-10.863 -48.995,-35.692 -26.381,-24.83 -14.221,-42.62 13.411,-52.184 28.363,-9.819 72.385,-15.211 134.237,-6.122 0,0 -54.314,0.665 -85.13,4.434 -25.432,3.11 -43.452,10.197 -54.093,20.174 -11.518,10.799 -7.322,23.874 4.434,36.579 C -14.188,-9.089 0,0 0,0"
         style="fill:#231f20;fill-opacity:1;fill-rule:nonzero;stroke:none"
         id="path38"
         inkscape:connector-curvature="0" />
    </g>
    <g
       id="g40"
       transform="matrix(0.18788518,0,0,-0.17227941,40.107179,267.61927)">
      <path
         d="m 0,0 c 0,0 -80.808,-29.596 -85.796,-59.525 -4.988,-29.929 25.939,-45.891 97.767,-49.881 71.829,-3.99 90.449,0.774 90.449,0.774 0,0 -97.432,1.886 -133.347,14.19 -29.993,10.276 -62.007,27.841 -13.966,65.844 C -22.613,-10.974 0,0 0,0"
         style="fill:#231f20;fill-opacity:1;fill-rule:nonzero;stroke:none"
         id="path42"
         inkscape:connector-curvature="0" />
    </g>
    <g
       id="g44"
       transform="matrix(0.95808953,0,0,-0.95808953,198.41355,282.87894)">
      <path
         d="m 0,0 c -0.831,0.582 -0.908,4.839 -0.964,7.289 -0.048,2.048 -0.108,3.914 -0.177,5.615 1.48,-0.201 3.762,-0.246 7.324,0.046 12.083,0.991 12.934,3.398 12.934,3.398 -8.208,0.413 -16.486,-0.608 -20.36,-1.188 -0.353,7.142 -0.876,10.946 -1.312,12.956 0.646,-0.521 2.153,-0.718 6.185,-0.87 10.203,-0.386 13.104,2.406 13.104,2.406 -19.401,2.547 -20.081,0.707 -20.081,0.707 0,0 -2.723,-22.08 -1.872,-28.59 0.546,-4.181 2.052,-5.379 2.645,-5.696 0.747,-0.602 2.357,-0.796 5.694,-0.39 16.338,1.981 16.168,5.519 16.168,5.519 C 8.189,1.87 0.915,-0.624 0,0"
         style="fill:#231f20;fill-opacity:1;fill-rule:nonzero;stroke:none"
         id="path46"
         inkscape:connector-curvature="0" />
    </g>
    <g
       id="g48"
       transform="matrix(0.95808953,0,0,-0.95808953,129.50083,283.27283)">
      <path
         d="m 0,0 c -1.694,-0.026 -3.558,-0.441 -5.994,-0.668 0.174,4.329 0.682,19.915 -0.535,29.556 6.899,0.713 7.944,2.028 7.944,2.028 0,0 -2.073,0.715 -5.731,0.558 -5.46,-0.235 -16.885,-1.21 -16.885,-1.21 0,0 2.816,-2.009 9.78,-1.72 0.864,0.036 1.652,0.082 2.406,0.133 -0.22,-4.45 -1.054,-23.571 0.525,-29.484 -1.197,-0.017 -2.515,0.028 -4.002,0.188 -5.795,0.625 -6.897,-1.368 -6.897,-1.368 4.188,-4.236 18.797,-0.412 21.488,0.033 2.691,0.444 3.047,1.479 3.047,1.479 0,0 -2.206,0.521 -5.146,0.475"
         style="fill:#231f20;fill-opacity:1;fill-rule:nonzero;stroke:none"
         id="path50"
         inkscape:connector-curvature="0" />
    </g>
    <g
       id="g52"
       transform="matrix(0.95808953,0,0,-0.95808953,172.6069,256.05426)">
      <path
         d="m 0,0 c 0,0 -6.601,7.229 -18.545,-0.314 -11.944,-7.544 -14.734,-22.612 -4.361,-28.898 10.372,-6.287 27.582,-2.122 29.88,3.713 0,0 -6.719,-2.122 -10.785,-2.711 -4.067,-0.59 -10.727,-1.533 -16.856,3.005 -6.129,4.538 -4.95,13.261 -0.648,18.212 4.302,4.95 10.069,8.87 17.622,7.307 C -0.275,-0.393 0,0 0,0"
         style="fill:#231f20;fill-opacity:1;fill-rule:nonzero;stroke:none"
         id="path54"
         inkscape:connector-curvature="0" />
    </g>
    <g
       id="g56"
       transform="matrix(0.95808953,0,0,-0.95808953,283.96614,263.55246)">
      <path
         d="m 0,0 c -1.996,-1.663 -5.612,-4.073 -13.995,-4.115 -3.653,-0.018 -6.062,-0.131 -7.595,-0.245 -0.005,0.118 -0.014,0.227 -0.018,0.346 -0.194,5.617 -0.144,8.488 -0.054,9.951 5.705,0.596 11.694,1.531 15.648,1.31 C 3.023,6.741 1.995,1.663 0,0 m -11.723,10.129 c -13.8,-0.555 -16.183,-4.489 -16.349,-4.601 0,0 0.527,-0.12 3.842,0.159 -1.272,-3.717 -2.409,-11.371 -0.908,-19.634 1.928,-10.611 7.569,-10.606 7.569,-10.606 0.249,2.599 -3.098,7.708 -3.901,18.114 1.62,-0.623 4.29,-1.146 8.695,-1.057 11.804,0.24 17.948,6.374 17.887,11.112 -0.042,3.242 -3.034,7.067 -16.835,6.513"
         style="fill:#231f20;fill-opacity:1;fill-rule:nonzero;stroke:none"
         id="path58"
         inkscape:connector-curvature="0" />
    </g>
    <g
       id="g60"
       transform="matrix(0.95808953,0,0,-0.95808953,306.86294,273.06224)">
      <path
         d="M 0,0 C 2.008,5.008 5.197,13.996 6.279,14.162 7.291,14.316 10.154,8.853 13.809,1.313 7.374,1.599 2.863,0.835 0,0 M 17.696,2.735 C 13.318,11.843 8.662,17.726 6.557,17.782 4.396,17.84 1.804,12.686 0.127,8.731 -2.367,2.849 -5.138,-3.091 -7.078,-8.917 c -1.337,-4.017 -0.997,-6.223 -0.997,-6.223 2.054,0.048 4.951,7.236 6.925,12.241 3.998,-0.07 11.22,1.67 15.62,2.844 0.134,-0.276 0.264,-0.549 0.4,-0.83 4.156,-8.654 9.311,-13.066 9.311,-13.066 -0.055,1.301 -2.106,7.579 -6.485,16.686"
         style="fill:#231f20;fill-opacity:1;fill-rule:nonzero;stroke:none"
         id="path62"
         inkscape:connector-curvature="0" />
    </g>
    <g
       id="g64"
       transform="matrix(0.95808953,0,0,-0.95808953,370.38686,260.59397)">
      <path
         d="m 0,0 c 0,0 -0.083,5.208 -6.9,5.729 -6.817,0.521 -21.034,-4.375 -19.038,-21.667 1.996,-17.291 33.919,-11.874 34.584,-4.895 0,0 -10.059,-3.959 -19.204,-3.021 C -26.892,-22.18 -22.973,-4.174 -15.38,0 -7.232,4.479 -1.247,0 0,0"
         style="fill:#231f20;fill-opacity:1;fill-rule:nonzero;stroke:none"
         id="path66"
         inkscape:connector-curvature="0" />
    </g>
    <g
       id="g68"
       transform="matrix(0.95808953,0,0,-0.95808953,409.77528,269.48247)">
      <path
         d="m 0,0 c 6.961,5.88 14.346,13.897 13.885,16.504 0,0 -0.293,1.532 -14.482,-11.824 -4.742,-4.465 -8.591,-6.264 -11.139,-7.594 -0.153,7.77 -1.536,19.352 -4.324,19.786 0,0 -3.159,-7.094 -0.277,-25.106 0.261,-1.632 2.328,-9.256 2.993,-10.032 0,0 1.202,-0.045 1.471,4.968 0.069,1.281 0.112,3.338 0.137,6.228 0.549,-0.07 1.755,0.324 2.438,0.609 1.995,0.831 3.659,2.012 6.459,4.166 C 0.955,-10.673 15.394,-18.857 15.365,-18.1 15.295,-16.187 4.363,-3.825 0,0"
         style="fill:#231f20;fill-opacity:1;fill-rule:nonzero;stroke:none"
         id="path70"
         inkscape:connector-curvature="0" />
    </g>
  </g>
</svg>
